<svg xmlns="http://www.w3.org/2000/svg" width="20" height="21" viewBox="0 0 20 21" fill="none">
  <path d="M16.875 3H6.875C6.70924 3 6.55027 3.06585 6.43306 3.18306C6.31585 3.30027 6.25 3.45924 6.25 3.625V6.75H3.125C2.95924 6.75 2.80027 6.81585 2.68306 6.93306C2.56585 7.05027 2.5 7.20924 2.5 7.375V17.375C2.5 17.5408 2.56585 17.6997 2.68306 17.8169C2.80027 17.9342 2.95924 18 3.125 18H13.125C13.2908 18 13.4497 17.9342 13.5669 17.8169C13.6842 17.6997 13.75 17.5408 13.75 17.375V14.25H16.875C17.0408 14.25 17.1997 14.1842 17.3169 14.0669C17.4342 13.9497 17.5 13.7908 17.5 13.625V3.625C17.5 3.45924 17.4342 3.30027 17.3169 3.18306C17.1997 3.06585 17.0408 3 16.875 3ZM12.5 16.75H3.75V8H12.5V16.75ZM16.25 13H13.75V7.375C13.75 7.20924 13.6842 7.05027 13.5669 6.93306C13.4497 6.81585 13.2908 6.75 13.125 6.75H7.5V4.25H16.25V13Z" fill="#1DA7E0"/>
</svg>